<?xml version="1.0" encoding="UTF-8" standalone="no"?>
<!-- Created with Inkscape (http://www.inkscape.org/) -->

<svg
   width="20mm"
   height="20mm"
   id="svg2"
   sodipodi:version="0.32"
   inkscape:version="1.1 (c68e22c387, 2021-05-23)"
   version="1.0"
   inkscape:export-filename="/media/DATA/Bilder/Admittansen/mho_georgia.png"
   inkscape:export-xdpi="90"
   inkscape:export-ydpi="90"
   sodipodi:docname="admittansen.svg"
   inkscape:output_extension="org.inkscape.output.svg.inkscape"
   xmlns:inkscape="http://www.inkscape.org/namespaces/inkscape"
   xmlns:sodipodi="http://sodipodi.sourceforge.net/DTD/sodipodi-0.dtd"
   xmlns="http://www.w3.org/2000/svg"
   xmlns:svg="http://www.w3.org/2000/svg"
   xmlns:rdf="http://www.w3.org/1999/02/22-rdf-syntax-ns#"
   xmlns:cc="http://creativecommons.org/ns#"
   xmlns:dc="http://purl.org/dc/elements/1.1/">
  <defs
     id="defs4">
    <inkscape:perspective
       sodipodi:type="inkscape:persp3d"
       inkscape:vp_x="0 : -308.40945 : 1"
       inkscape:vp_y="0 : 1000 : 0"
       inkscape:vp_z="256 : -308.40945 : 1"
       inkscape:persp3d-origin="128 : -351.07612 : 1"
       id="perspective8" />
  </defs>
  <sodipodi:namedview
     id="base"
     pagecolor="#ffffff"
     bordercolor="#666666"
     borderopacity="1.0"
     gridtolerance="10000"
     guidetolerance="6"
     objecttolerance="10"
     inkscape:pageopacity="0.0"
     inkscape:pageshadow="2"
     inkscape:zoom="0.5"
     inkscape:cx="237"
     inkscape:cy="257"
     inkscape:document-units="px"
     inkscape:current-layer="layer1"
     width="20mm"
     height="20mm"
     inkscape:window-width="1920"
     inkscape:window-height="1017"
     inkscape:window-x="-8"
     inkscape:window-y="-8"
     inkscape:grid-points="true"
     inkscape:grid-bbox="false"
     showgrid="true"
     inkscape:snap-nodes="true"
     inkscape:pagecheckerboard="0"
     units="mm"
     inkscape:window-maximized="1">
    <inkscape:grid
       id="GridFromPre046Settings"
       type="xygrid"
       originx="0"
       originy="0"
       spacingx="16"
       spacingy="16"
       color="#0000ff"
       empcolor="#0000ff"
       opacity="0.2"
       empopacity="0.4"
       empspacing="8"
       visible="false"
       enabled="true" />
  </sodipodi:namedview>
  <metadata
     id="metadata7">
    <rdf:RDF>
      <cc:Work
         rdf:about="">
        <dc:format>image/svg+xml</dc:format>
        <dc:type
           rdf:resource="http://purl.org/dc/dcmitype/StillImage" />
      </cc:Work>
    </rdf:RDF>
  </metadata>
  <g
     inkscape:label="F.Cu"
     inkscape:groupmode="layer"
     id="layer1">
    <path
       style="color:#000000;fill:#000000;stroke-width:0.142932;-inkscape-stroke:none"
       d="M 37.795276,0 C 16.935802,0 0,16.93579 0,37.795276 c 0,20.859486 16.935802,37.795275 37.795276,37.795275 20.859473,0 37.795275,-16.935789 37.795275,-37.795275 C 75.590551,16.93579 58.654749,0 37.795276,0 Z m 0,2.4091916 c 19.557409,0 35.386085,15.8286634 35.386085,35.3860844 0,19.557422 -15.828676,35.386084 -35.386085,35.386084 -19.557408,0 -35.3860844,-15.828662 -35.3860844,-35.386084 0,-19.557421 15.8286764,-35.3860844 35.3860844,-35.3860844 z"
       id="path2381" />
    <path
       style="font-size:144px;font-family:Georgia;stroke-width:0.150579"
       d="m 13.175486,28.788099 2.214118,-12.450416 h 18.932277 v 2.182034 c -1.304909,1.861141 -2.588449,3.732979 -3.850633,5.615521 -1.28351,1.882527 -2.321041,3.668799 -3.112594,5.358814 -0.898445,1.903912 -1.572305,3.732966 -2.021585,5.487168 -0.449202,1.754158 -0.673823,3.893405 -0.673859,6.417738 3.6e-5,1.775546 0.19257,3.829223 0.577592,6.16103 0.363709,2.353135 0.984092,4.385415 1.861141,6.096851 1.198011,2.267557 2.695476,3.904081 4.492407,4.909568 1.796995,1.026795 3.861358,1.540216 6.193099,1.540259 2.331797,-4.3e-5 4.406858,-0.534855 6.225191,-1.604434 1.818372,-1.069665 3.28375,-2.695492 4.396139,-4.877483 0.877103,-1.690038 1.508178,-3.636751 1.893227,-5.840144 0.385077,-2.182059 0.577608,-4.310608 0.577594,-6.385647 1.4e-5,-2.353195 -0.235301,-4.492439 -0.705948,-6.417738 C 49.703033,33.077269 49.029173,31.226825 48.152069,29.429871 47.317784,27.654287 46.25886,25.81454 44.975296,23.910616 43.670382,22.006685 42.418928,20.209717 41.22093,18.519717 v -2.182034 h 19.028544 l 2.214114,12.450416 H 60.249474 C 59.9072,27.95378 59.597011,27.183658 59.318906,26.477711 59.019416,25.793143 58.623656,25.076497 58.131627,24.327773 57.682391,23.621814 57.17967,23.054912 56.623462,22.62707 56.067265,22.199215 55.361319,21.98529 54.505616,21.985295 h -7.380381 v 1.058929 c 1.390522,1.561639 2.887987,3.305124 4.492404,5.230454 1.604442,1.946703 2.845199,3.636705 3.72228,5.070018 1.00545,1.625809 1.807663,3.412076 2.406645,5.358813 0.5776,1.968079 0.866398,4.06454 0.866393,6.289384 5e-6,2.460098 -0.502718,4.738396 -1.508166,6.834891 -1.005436,2.117815 -2.44942,4.032439 -4.331963,5.743874 -1.796949,1.625785 -3.989669,2.930725 -6.578165,3.914821 -2.609852,0.984008 -5.412255,1.476035 -8.407214,1.47608 -3.123259,-4.5e-5 -5.968446,-0.502769 -8.535569,-1.508167 -2.588444,-0.9841 -4.791861,-2.299734 -6.610254,-3.946908 -1.818309,-1.668654 -3.219512,-3.583274 -4.203603,-5.74388 -1.005399,-2.139277 -1.508122,-4.396182 -1.508167,-6.770709 4.5e-5,-2.224845 0.278146,-4.299911 0.834303,-6.225211 0.556248,-1.90395 1.358462,-3.722307 2.406647,-5.455076 1.069659,-1.732805 2.353205,-3.476289 3.85063,-5.230459 1.476116,-1.75419 2.941492,-3.4335 4.396141,-5.037924 v -1.058929 h -7.284116 c -0.791477,-4e-6 -1.486726,0.213921 -2.085758,0.641775 -0.598941,0.449235 -1.11236,1.016134 -1.540253,1.700704 -0.491978,0.770118 -0.887738,1.508156 -1.187278,2.214118 -0.299449,0.70594 -0.609634,1.454674 -0.930568,2.246208 h -2.214118"
       id="flowRoot2278" />
  </g>
</svg>
