<?xml version="1.0" encoding="UTF-8" standalone="no"?>
<svg
   xmlns:dc="http://purl.org/dc/elements/1.1/"
   xmlns:cc="http://creativecommons.org/ns#"
   xmlns:rdf="http://www.w3.org/1999/02/22-rdf-syntax-ns#"
   xmlns:svg="http://www.w3.org/2000/svg"
   xmlns="http://www.w3.org/2000/svg"
   xmlns:sodipodi="http://sodipodi.sourceforge.net/DTD/sodipodi-0.dtd"
   xmlns:inkscape="http://www.inkscape.org/namespaces/inkscape"
   width="20mm"
   height="14mm"
   viewBox="0 0 20 14.000001"
   version="1.1"
   id="svg1415"
   inkscape:version="1.0.2 (e86c870879, 2021-01-15, custom)"
   sodipodi:docname="bubbla_50mm_copper.svg">
  <defs
     id="defs1409" />
  <sodipodi:namedview
     id="base"
     pagecolor="#ffffff"
     bordercolor="#666666"
     borderopacity="1.0"
     inkscape:pageopacity="0.0"
     inkscape:pageshadow="2"
     inkscape:zoom="7.919596"
     inkscape:cx="28.793422"
     inkscape:cy="30.784161"
     inkscape:document-units="mm"
     inkscape:current-layer="layer1"
     inkscape:document-rotation="0"
     showgrid="false"
     fit-margin-top="0"
     fit-margin-left="0"
     fit-margin-right="0"
     fit-margin-bottom="0"
     lock-margins="false"
     width="10mm"
     inkscape:window-width="1920"
     inkscape:window-height="1177"
     inkscape:window-x="1912"
     inkscape:window-y="-8"
     inkscape:window-maximized="1" />
  <metadata
     id="metadata1412">
    <rdf:RDF>
      <cc:Work
         rdf:about="">
        <dc:format>image/svg+xml</dc:format>
        <dc:type
           rdf:resource="http://purl.org/dc/dcmitype/StillImage" />
        <dc:title />
      </cc:Work>
    </rdf:RDF>
  </metadata>
  <g
     inkscape:label="F.Cu"
     inkscape:groupmode="layer"
     id="layer1"
     style="display:inline">
    <path
       style="fill:#8c98f6;fill-opacity:1;fill-rule:nonzero;stroke:none;stroke-width:0;stroke-miterlimit:4;stroke-dasharray:none"
       d="m 7.63623,8.6014645 -0.18669,0.037195 -0.15099,0.1018458 -0.1010499,0.151931 -0.03685,0.187421 0.03685,0.1875012 L 7.29855,9.4189287 7.44954,9.520323 7.63623,9.5572876 7.82313,9.520323 7.97458,9.4189287 8.07609,9.2673588 8.11315,9.0798576 8.07609,8.8924366 7.97458,8.7405056 7.82313,8.6386598 7.63623,8.6014645"
       id="path841" />
    <path
       style="fill:#8c98f6;fill-opacity:1;fill-rule:nonzero;stroke:none;stroke-width:0;stroke-miterlimit:4;stroke-dasharray:none"
       d="m 11.7373,9.237426 -0.1867,0.036965 -0.1509,0.1013542 -0.1009,0.1514595 -0.0368,0.1872706 0.0368,0.1871401 0.1009,0.1513486 0.1509,0.101214 0.1867,0.03691 0.1866,-0.03691 0.151,-0.101214 L 12.176,9.901615 12.2128,9.7144749 12.176,9.5272043 12.0749,9.3757448 11.9239,9.2743906 11.7373,9.237426 v 0"
       id="path839" />
    <path
       style="fill:#8c98f6;fill-opacity:1;fill-rule:nonzero;stroke:none;stroke-width:0;stroke-miterlimit:4;stroke-dasharray:none"
       d="m 13.1357,6.0543084 -0.1866,0.036924 -0.1509,0.1012539 -0.101,0.1513693 -0.0368,0.1872203 0.0368,0.1872605 0.101,0.1514395 0.1509,0.1013442 0.1866,0.036965 0.1867,-0.036965 0.151,-0.1013442 L 13.5746,6.7183368 13.6115,6.5310763 13.5746,6.343856 13.4734,6.1924867 13.3224,6.0912328 13.1357,6.0543084 v 0"
       id="path837" />
    <path
       style="fill:#8c98f6;fill-opacity:1;fill-rule:nonzero;stroke:none;stroke-width:0;stroke-miterlimit:4;stroke-dasharray:none"
       d="M 9.9702,2.7422409 9.78356,2.7792457 9.63266,2.8806901 9.53171,3.0322299 9.4949,3.2195406 9.53171,3.406761 9.63266,3.5581202 9.78356,3.6593841 9.9702,3.6962985 10.1569,3.6593841 10.3079,3.5581202 10.4089,3.406761 10.4458,3.2195406 10.4089,3.0322299 10.3079,2.8806901 10.1569,2.7792457 9.9702,2.7422409 v 0"
       id="path835" />
    <path
       style="fill:#8c98f6;fill-opacity:1;fill-rule:nonzero;stroke:none;stroke-width:0;stroke-miterlimit:4;stroke-dasharray:none"
       d="M 5.63176,2.4811315 5.445,2.5181262 5.29387,2.6195707 5.19267,2.7711205 5.15576,2.9584211 5.19267,3.1459023 5.29387,3.2978333 5.445,3.399669 5.63176,3.4368442 5.81836,3.399669 5.9692,3.2978333 6.07009,3.1459023 6.10688,2.9584211 6.07009,2.7711205 5.9692,2.6195707 5.81836,2.5181262 5.63176,2.4811315 v 0"
       id="path833" />
    <path
       style="fill:#8c98f6;fill-opacity:1;fill-rule:nonzero;stroke:none;stroke-width:0;stroke-miterlimit:4;stroke-dasharray:none"
       d="M 9.99984,4.2129401e-5 7.9844,0.10229411 6.10727,0.40754038 4.40865,0.91351389 2.92873,1.6179557 2.28334,2.043886 1.70771,2.5185876 1.20684,3.0417695 0.785778,3.6131508 0.449537,4.2324506 0.203144,4.8993881 0.0516234,5.6136724 0,6.3750226 0.0627863,7.2369245 0.246392,8.0338249 0.543685,8.7665563 0.947536,9.4359514 4.40088,4.9099107 4.6503001,4.789668 H 5.28325 V 4.0068813 L 4.97973,3.8489618 4.73926,3.6095396 4.58095,3.3066707 4.52393,2.9584211 4.61161,2.5279767 4.85005,2.1750828 5.20239,1.936443 5.63176,1.8487411 6.06075,1.936443 6.41232,2.1750828 6.65,2.5279767 6.73732,2.9584211 6.67502,3.3229211 6.50267,3.6364931 6.24209,3.8781924 5.91508,4.0270539 V 4.7914736 L 7.9259001,4.7988966 8.99371,3.7294112 8.8628,3.2195005 8.95039,2.7891163 9.18866,2.4363527 9.54084,2.1978433 9.9702,2.1102016 l 0.4291,0.087481 0.3516,0.2385295 0.2378,0.3528438 0.0874,0.4304444 -0.0874,0.430675 L 10.7509,4.0034507 10.3993,4.2424516 9.9702,4.330314 9.68782,4.2908115 9.43222,4.1830675 8.28005,5.3408767 8.05639,5.4329522 4.80203,5.4220183 1.35433,9.9394523 2.09833,10.627044 5.4183001,6.2715719 5.66841,6.1515799 h 6.43289 l 0.1609,-0.2924967 0.2371,-0.230956 0.2967,-0.15161 0.3397,-0.054499 0.4294,0.087581 0.3524,0.2383789 0.2386,0.3526533 0.0877,0.4303942 -0.0877,0.4307353 -0.2386,0.3535058 -0.3524,0.2392718 -0.4294,0.087983 L 12.7646,7.5771492 12.4469,7.3966496 12.2051,7.1244458 12.0618,6.7839703 H 9.08124 l 2.07326,1.9927174 0.2747,-0.1260608 0.3081,-0.045631 0.4292,0.087642 0.3523,0.2385294 0.2384,0.3528037 0.0877,0.4304644 -0.0877,0.4306156 -0.2384,0.353395 -0.3523,0.239142 -0.4292,0.08787 -0.4291,-0.08787 -0.3516,-0.239142 -0.237599,-0.353395 -0.0873,-0.4306156 0.1036,-0.4608787 L 8.18801,6.7839703 H 5.82191 L 4.39164,8.7129602 h 2.20637 l 0.1595,-0.2977531 0.23751,-0.2355 0.29856,-0.15483 0.34265,-0.055703 0.4293,0.087913 0.3522,0.2391212 0.2383,0.3533655 0.08761,0.430665 -0.08761,0.4302839 -0.2383,0.3528238 -0.3522,0.2386695 -0.4293,0.08767 -0.36815,-0.0642 L 6.95246,9.9481593 6.71114,9.6803792 6.56591,9.3449293 H 3.8986 L 2.61413,10.992878 0.678407,13.528238 0.564394,13.737386 0.594808,13.95155 0.709965,14 0.860392,13.98897 1.04681,13.9359 l 2.11796,-0.689337 1.68156,-0.487611 1.23802,-0.250477 1.12186,0.05026 1.36562,0.143645 1.42806,0.04805 2.01531,-0.09359 1.8771,-0.284281 1.698701,-0.479988 1.48,-0.681011 L 17.7164,10.794066 18.2921,10.32441 18.793001,9.80194 19.2141,9.2260307 19.5504,8.5960277 19.7968,7.911275 19.9484,7.1711405 20,6.3749724 19.9484,5.6584813 19.7968,4.9774802 19.5504,4.3334738 19.2141,3.7279266 18.793001,3.1623232 18.2921,2.6381483 17.7164,2.1568663 17.071001,1.7199719 15.591001,0.98523322 13.8923,0.44577089 12.0152,0.11341459 9.99989,0 l -5e-5,4.2129401e-5"
       id="path1990" />
  </g>
</svg>
