<?xml version="1.0" encoding="UTF-8" standalone="no"?>
<svg
   width="50mm"
   height="35mm"
   viewBox="0 0 50 35.000003"
   version="1.1"
   id="svg1415"
   inkscape:version="1.1 (c68e22c387, 2021-05-23)"
   sodipodi:docname="bubbla_50mm_copper.svg"
   xmlns:inkscape="http://www.inkscape.org/namespaces/inkscape"
   xmlns:sodipodi="http://sodipodi.sourceforge.net/DTD/sodipodi-0.dtd"
   xmlns="http://www.w3.org/2000/svg"
   xmlns:svg="http://www.w3.org/2000/svg"
   xmlns:rdf="http://www.w3.org/1999/02/22-rdf-syntax-ns#"
   xmlns:cc="http://creativecommons.org/ns#"
   xmlns:dc="http://purl.org/dc/elements/1.1/">
  <defs
     id="defs1409" />
  <sodipodi:namedview
     id="base"
     pagecolor="#ffffff"
     bordercolor="#666666"
     borderopacity="1.0"
     inkscape:pageopacity="0.0"
     inkscape:pageshadow="2"
     inkscape:zoom="3.959798"
     inkscape:cx="55.179582"
     inkscape:cy="84.979082"
     inkscape:document-units="mm"
     inkscape:current-layer="layer1"
     inkscape:document-rotation="0"
     showgrid="false"
     fit-margin-top="0"
     fit-margin-left="0"
     fit-margin-right="0"
     fit-margin-bottom="0"
     lock-margins="true"
     width="10mm"
     inkscape:window-width="1920"
     inkscape:window-height="1137"
     inkscape:window-x="-8"
     inkscape:window-y="-8"
     inkscape:window-maximized="1"
     inkscape:pagecheckerboard="0" />
  <metadata
     id="metadata1412">
    <rdf:RDF>
      <cc:Work
         rdf:about="">
        <dc:format>image/svg+xml</dc:format>
        <dc:type
           rdf:resource="http://purl.org/dc/dcmitype/StillImage" />
      </cc:Work>
    </rdf:RDF>
  </metadata>
  <g
     inkscape:label="F.Cu"
     inkscape:groupmode="layer"
     id="layer1"
     style="display:inline">
    <path
       style="fill:#8c98f6;fill-opacity:1;fill-rule:nonzero;stroke:none;stroke-width:0;stroke-miterlimit:4;stroke-dasharray:none"
       d="m 19.090575,21.503661 -0.466725,0.09299 -0.377475,0.254614 -0.252625,0.379828 -0.09212,0.468552 0.09212,0.468753 0.252625,0.378926 0.377475,0.253486 0.466725,0.09241 0.46725,-0.09241 0.378625,-0.253486 0.253775,-0.378925 0.09265,-0.468753 -0.09265,-0.468552 -0.253775,-0.379828 -0.378625,-0.254614 -0.46725,-0.09299"
       id="path841" />
    <path
       style="fill:#8c98f6;fill-opacity:1;fill-rule:nonzero;stroke:none;stroke-width:0;stroke-miterlimit:4;stroke-dasharray:none"
       d="m 29.34325,23.093565 -0.46675,0.09241 -0.37725,0.253385 -0.25225,0.378649 -0.092,0.468176 0.092,0.467851 0.25225,0.378371 0.37725,0.253035 0.46675,0.09228 0.4665,-0.09228 0.3775,-0.253035 0.25275,-0.378372 0.092,-0.467851 -0.092,-0.468176 -0.25275,-0.378649 -0.3775,-0.253385 -0.4665,-0.09241 v 0"
       id="path839" />
    <path
       style="fill:#8c98f6;fill-opacity:1;fill-rule:nonzero;stroke:none;stroke-width:0;stroke-miterlimit:4;stroke-dasharray:none"
       d="m 32.83925,15.135771 -0.4665,0.09231 -0.37725,0.253135 -0.2525,0.378423 -0.092,0.468051 0.092,0.468151 0.2525,0.378599 0.37725,0.25336 0.4665,0.09241 0.46675,-0.09241 0.3775,-0.25336 0.253,-0.378598 0.09225,-0.468151 -0.09225,-0.468051 -0.253,-0.378423 -0.3775,-0.253135 -0.46675,-0.09231 v 0"
       id="path837" />
    <path
       style="fill:#8c98f6;fill-opacity:1;fill-rule:nonzero;stroke:none;stroke-width:0;stroke-miterlimit:4;stroke-dasharray:none"
       d="m 24.9255,6.8556023 -0.4666,0.092512 -0.37725,0.253611 -0.252375,0.3788495 -0.09202,0.4682767 0.09202,0.468051 0.252375,0.378398 0.37725,0.2531598 0.4666,0.092285 0.46675,-0.092285 0.3775,-0.2531598 0.2525,-0.3783985 0.09225,-0.468051 -0.09225,-0.4682767 -0.2525,-0.3788495 -0.3775,-0.253611 -0.46675,-0.092512 v 0"
       id="path835" />
    <path
       style="fill:#8c98f6;fill-opacity:1;fill-rule:nonzero;stroke:none;stroke-width:0;stroke-miterlimit:4;stroke-dasharray:none"
       d="m 14.0794,6.2028288 -0.4669,0.092487 -0.377825,0.2536112 -0.253,0.3788745 -0.09227,0.4682515 0.09227,0.468703 0.253,0.3798275 L 13.6125,8.499172 14.0794,8.59211 14.5459,8.499172 14.923,8.2445833 15.175225,7.8647558 15.2672,7.3960528 15.175225,6.9278013 14.923,6.5489268 14.5459,6.2953155 14.0794,6.2028288 v 0"
       id="path833" />
    <path
       style="fill:#8c98f6;fill-opacity:1;fill-rule:nonzero;stroke:none;stroke-width:0;stroke-miterlimit:4;stroke-dasharray:none"
       d="M 24.9996,1.053235e-4 19.961,0.25573528 15.268175,1.0188509 11.021625,2.2837847 7.321825,4.0448893 5.70835,5.109715 4.269275,6.296469 3.0171,7.6044238 1.964445,9.032877 1.1238425,10.581127 0.50786,12.24847 0.1290585,14.034181 0,15.937557 0.15696575,18.092311 0.61598,20.084562 1.3592125,21.916391 2.36884,23.589879 11.0022,12.274777 11.62575,11.97417 h 1.582375 V 10.017203 L 12.449325,9.6224045 11.84815,9.023849 11.452375,8.2666768 l -0.14255,-0.870624 0.2192,-1.076111 0.5961,-0.8822348 0.88085,-0.5965995 1.073425,-0.219255 1.072475,0.219255 0.878925,0.5965995 0.5942,0.8822348 0.2183,1.076111 -0.15575,0.91125 -0.430875,0.78393 -0.65145,0.6042482 -0.817525,0.372154 v 1.911049 l 5.02705,0.01855 L 22.484275,9.323528 22.157,8.0487513 22.375975,6.9727908 22.97165,6.0908818 23.8521,5.4946083 l 1.0734,-0.219105 1.07275,0.2187025 0.879,0.5963237 0.5945,0.8821095 0.2185,1.076111 -0.2185,1.0766875 -0.5945,0.8831885 -0.879,0.597502 -1.07275,0.219655 -0.70595,-0.09876 -0.639,-0.26936 -2.880425,2.894523 -0.55915,0.230187 -8.1359,-0.02734 -8.61925,11.293585 1.86,1.718979 8.299925,-10.88868 0.625275,-0.29998 H 30.25325 l 0.40225,-0.731241 0.59275,-0.57739 0.74175,-0.379025 0.84925,-0.136248 1.0735,0.218953 0.881,0.595947 0.5965,0.881633 0.21925,1.075986 -0.21925,1.076838 -0.5965,0.883764 -0.881,0.59818 -1.0735,0.219957 -0.92775,-0.163426 -0.79425,-0.451249 -0.6045,-0.680509 -0.35825,-0.851189 h -7.4514 l 5.18315,4.981793 0.68675,-0.315152 0.77025,-0.114077 1.073,0.219105 0.88075,0.596323 0.596,0.88201 0.21925,1.076161 -0.21925,1.076539 -0.596,0.883487 -0.88075,0.597855 -1.073,0.219675 -1.07275,-0.219675 -0.879,-0.597855 -0.593998,-0.883487 -0.21825,-1.076539 0.259,-1.152197 -6.368227,-6.173966 h -5.91525 L 10.9791,21.782401 h 5.515925 l 0.39875,-0.744383 0.593775,-0.58875 0.7464,-0.387075 0.856625,-0.139258 1.07325,0.219783 0.8805,0.597803 0.59575,0.883413 0.219025,1.076663 -0.219025,1.07571 -0.59575,0.882059 -0.8805,0.596674 -1.07325,0.219175 -0.920375,-0.1605 -0.78905,-0.443317 -0.6033,-0.66945 -0.363075,-0.838625 H 9.7465 l -3.211175,4.119872 -4.8393075,6.3384 -0.2850325,0.52287 0.076035,0.53541 L 1.7749125,35 2.15098,34.972425 2.617025,34.83975 l 5.2949,-1.723342 4.2039,-1.219028 3.09505,-0.626192 2.80465,0.12565 3.41405,0.359112 3.57015,0.120125 5.038275,-0.233975 4.69275,-0.710702 4.246752,-1.19997 3.7,-1.702528 1.613498,-1.043735 1.43925,-1.17414 1.252252,-1.306175 1.052748,-1.439773 0.84075,-1.575008 0.616,-1.711881 0.379,-1.850337 L 50,15.937431 49.871,14.146203 49.492,12.443701 48.876,10.833685 48.03525,9.3198165 46.982502,7.905808 45.73025,6.5953708 44.291,5.3921658 42.677502,4.2999298 38.977502,2.4630831 34.73075,1.1144272 30.038,0.28353648 24.999725,0 24.9996,1.053235e-4"
       id="path1990" />
  </g>
</svg>
