<?xml version="1.0" encoding="UTF-8" standalone="no"?>
<svg
   width="50mm"
   height="42.22221mm"
   viewBox="0 0 188.97638 159.58001"
   version="1.1"
   xml:space="preserve"
   style="clip-rule:evenodd;fill-rule:evenodd;stroke-linejoin:round;stroke-miterlimit:2"
   id="svg866"
   sodipodi:docname="button_50mm_Copper.svg"
   inkscape:version="1.1 (c68e22c387, 2021-05-23)"
   xmlns:inkscape="http://www.inkscape.org/namespaces/inkscape"
   xmlns:sodipodi="http://sodipodi.sourceforge.net/DTD/sodipodi-0.dtd"
   xmlns="http://www.w3.org/2000/svg"
   xmlns:svg="http://www.w3.org/2000/svg"><defs
   id="defs870" /><sodipodi:namedview
   id="namedview868"
   pagecolor="#ffffff"
   bordercolor="#666666"
   borderopacity="1.0"
   inkscape:pageshadow="2"
   inkscape:pageopacity="0.0"
   inkscape:pagecheckerboard="0"
   showgrid="false"
   inkscape:zoom="0.79365079"
   inkscape:cx="124.51824"
   inkscape:cy="23.574727"
   inkscape:window-width="1114"
   inkscape:window-height="1128"
   inkscape:window-x="797"
   inkscape:window-y="0"
   inkscape:window-maximized="0"
   inkscape:current-layer="layer1"
   inkscape:rotation="-13"
   units="mm"
   inkscape:document-units="mm" />
    
<g
   inkscape:groupmode="layer"
   id="layer2"
   inkscape:label="hidden"
   style="display:none"><path
     d="m 646.171,194.573 c 0,-10.834 0.716,-7.571 2.087,-1.796 11.274,47.473 66.872,83.573 133.675,83.573 69.148,0 126.291,-38.68 134.697,-88.615 0.702,-4.175 1.064,4.882 1.064,6.838 0,54.271 -60.832,98.332 -135.761,98.332 -74.929,0 -135.762,-44.061 -135.762,-98.332 z"
     style="clip-rule:evenodd;display:inline;fill:#000000;fill-opacity:1;fill-rule:evenodd;stroke-linejoin:round;stroke-miterlimit:2"
     id="path852"
     transform="translate(-624.076,-75.0513)" /></g><g
   inkscape:groupmode="layer"
   id="layer1"
   inkscape:label="F.Cu"
   style="display:inline"><g
     transform="matrix(0.59994362,0,0,0.59992366,-374.41041,-45.025413)"
     id="g864"
     style="clip-rule:evenodd;fill:#000000;fill-opacity:1;fill-rule:evenodd;stroke-linejoin:round;stroke-miterlimit:2">
        <g
   transform="translate(-124.935,-410.5)"
   id="g862"
   style="fill:#000000;fill-opacity:1">
            <g
   id="g860"
   style="fill:#000000;fill-opacity:1">
                <g
   transform="translate(124.935,410.5)"
   id="g850"
   style="fill:#000000;fill-opacity:1">
                    <path
   d="m 639.433,169.685 c -0.981,10.249 -0.305,22.284 -0.305,29.99 0,57.086 63.989,103.433 142.805,103.433 78.816,0 142.805,-46.347 142.805,-103.433 0,-3.231 0.4,-21.847 0.101,-27.595 8.921,14.972 13.886,31.581 13.886,49.063 0,65.87 -70.495,119.348 -157.324,119.348 -86.83,0 -157.325,-53.478 -157.325,-119.348 0,-18.424 5.515,-35.879 15.357,-51.458 z"
   style="fill:#000000;fill-opacity:1"
   id="path848" />
                </g>
                <g
   transform="translate(124.935,410.5)"
   id="g854"
   style="fill:#000000;fill-opacity:1">
                    
                </g>
                <g
   transform="matrix(1,0,0,1.27918,660.021,354.524)"
   id="g858"
   style="fill:#000000;fill-opacity:1">
                    <path
   id="ellipse856"
   d="M 378.386,175.91299 A 132.071,73.483002 0 0 1 246.315,249.396 132.071,73.483002 0 0 1 114.244,175.91299 a 132.071,73.483002 0 0 1 132.071,-73.483 132.071,73.483002 0 0 1 132.071,73.483 z" />
                </g>
            </g>
        </g>
    </g></g></svg>
