<?xml version="1.0" encoding="UTF-8" standalone="no"?>
<svg
   viewBox="0 0 755.90552 136.11984"
   version="1.1"
   sodipodi:docname="espressif_200mm_Copper.svg"
   width="200mm"
   height="36.015041mm"
   inkscape:version="1.1 (c68e22c387, 2021-05-23)"
   id="svg1257"
   xmlns:inkscape="http://www.inkscape.org/namespaces/inkscape"
   xmlns:sodipodi="http://sodipodi.sourceforge.net/DTD/sodipodi-0.dtd"
   xmlns="http://www.w3.org/2000/svg"
   xmlns:svg="http://www.w3.org/2000/svg"
   xmlns:rdf="http://www.w3.org/1999/02/22-rdf-syntax-ns#"
   xmlns:cc="http://creativecommons.org/ns#"
   xmlns:dc="http://purl.org/dc/elements/1.1/">
  <sodipodi:namedview
     id="namedview859"
     pagecolor="#ffffff"
     bordercolor="#666666"
     borderopacity="1.0"
     inkscape:pageshadow="2"
     inkscape:pageopacity="0.0"
     inkscape:pagecheckerboard="0"
     showgrid="false"
     units="mm"
     inkscape:zoom="1.0698391"
     inkscape:cx="371.5512"
     inkscape:cy="7.0104"
     inkscape:window-width="1920"
     inkscape:window-height="1017"
     inkscape:window-x="-8"
     inkscape:window-y="-8"
     inkscape:window-maximized="1"
     inkscape:document-units="mm"
     inkscape:current-layer="layer1" />
  <defs
     id="defs826">
    <style
       id="style824">.cls-1{fill:#e7352c;}.cls-2{fill:#333;}</style>
  </defs>
  <title
     id="title828">espressif-logo</title>
  <g
     inkscape:groupmode="layer"
     id="layer1"
     inkscape:label="F.Cu"
     style="display:inline">
    <path
       class="cls-1"
       d="m 44.834447,101.25507 c 0,3.59266 -1.82892,6.4298 -4.396828,8.06021 -3.530082,2.24132 -8.456688,2.20217 -11.948328,-1.28966 -6.031584,-6.03191 -1.760798,-16.346042 6.770184,-16.346042 5.288112,0 9.574972,4.287094 9.574972,9.575492"
       id="path830"
       style="stroke:none;stroke-width:6.46976"
       sodipodi:nodetypes="csssc" />
    <path
       class="cls-1"
       d="M 128.35667,91.291384 A 99.24329,99.248684 0 0 0 44.252183,7.1823299 62.948974,62.952394 0 0 0 30.342597,17.210717 v 9.251995 a 78.799434,78.803714 0 0 1 78.734733,78.674318 h 9.25149 a 66.31315,66.316752 0 0 0 10.02785,-13.845646"
       id="path832"
       style="stroke:none;stroke-width:6.46976" />
    <path
       class="cls-1"
       d="M 135.86137,62.241412 A 62.237318,62.240698 0 0 0 73.300579,7.1073374e-4 c -2.199656,0 -4.334616,0 -6.469576,0.32349633626 L 65.407695,4.4649605 A 107.07147,107.0773 0 0 1 131.00919,70.005324 l 4.14053,-1.488084 c 0,-2.070376 0.38816,-4.140756 0.38816,-6.469926"
       id="path834"
       style="stroke:none;stroke-width:6.46976" />
    <path
       class="cls-1"
       d="M 74.012231,135.86918 C 33.262559,135.86957 0.17838971,102.92821 2.8767608e-4,62.176712 -0.05944269,42.534184 7.7454069,23.68503 21.673365,9.8349999 l 4.205226,3.9466551 C 11.008325,28.521762 5.1068125,48.564254 5.8685309,67.728676 c 0.6290932,15.82764 7.9146941,31.112392 20.0100601,43.101884 13.352914,13.47229 30.913588,20.21406 48.477776,20.22531 17.59355,0.0112 35.190623,-6.7305 48.565853,-20.22531 l 3.94644,3.94666 c -14.06749,13.85017 -33.118875,21.45249 -52.856429,21.09196"
       id="path836"
       style="stroke:none;stroke-width:6.46976"
       sodipodi:nodetypes="ccccacsccc" />
    <path
       class="cls-1"
       d="m 73.171187,109.40718 a 43.022676,43.025014 0 0 0 -16.885592,-38.23727 42.116936,42.119224 0 0 0 -21.673078,-8.7991 3.946441,3.9466556 0 0 1 -3.428874,-4.140756 3.8170496,3.817257 0 0 1 4.205224,-3.493758 50.786166,50.78893 0 0 1 45.287024,55.511974 44.316588,44.319002 0 0 1 -1.682088,8.7344 l 11.257062,3.17026 a 62.496102,62.499498 0 0 0 9.704364,-3.68785 68.836286,68.840024 0 0 0 1.229221,-13.26335 71.165334,71.1692 0 0 0 -60.361139,-70.263412 31.312746,31.314448 0 0 0 -11.321758,0 24.649082,24.650422 0 0 0 -12.227499,7.569814 24.196212,24.197528 0 0 0 10.804191,38.819562 56.026526,56.02957 0 0 0 6.081402,1.099888 v 0 a 22.70821,22.709444 0 0 1 18.89116,22.385948 22.449426,22.450648 0 0 1 -3.622964,12.22816 l 7.763496,4.98185 a 57.643918,57.647052 0 0 0 11.645228,1.94097 42.569808,42.57212 0 0 0 4.269924,-14.88083"
       id="path838"
       style="stroke:none;stroke-width:6.46976" />
    <path
       id="rect840"
       style="fill:#333333;stroke:none;stroke-width:6.46976"
       class="cls-2"
       d="m 674.00065,20.51038 h 14.29776 v 95.10793 h -14.29776 z" />
    <path
       class="cls-2"
       d="M 442.45457,75.892958 A 16.238634,16.239517 0 0 0 451.90013,60.30043 V 37.590988 A 17.07968,17.080608 0 0 0 446.85389,24.97463 16.820896,16.821811 0 0 0 435.33801,20.44568 h -41.27588 v 95.30203 h 14.36248 V 77.639838 h 14.68592 a 12.939151,12.939854 0 0 1 12.93916,11.257672 l 5.62852,26.9796 h 15.6564 l -6.08144,-25.297418 a 19.408727,19.409782 0 0 0 -8.7986,-14.36324 M 408.42461,33.90313 v 0 h 24.5844 a 4.8521816,4.8524456 0 0 1 4.59336,5.434738 V 58.74765 a 4.8521816,4.8524456 0 0 1 -4.59336,5.43474 h -24.5844 z"
       id="path842"
       style="stroke:none;stroke-width:6.46976" />
    <path
       class="cls-2"
       d="m 188.20024,25.039328 a 17.273767,17.274706 0 0 0 -5.04627,12.939856 v 60.817314 a 17.07968,17.080608 0 0 0 5.04627,12.616362 16.950288,16.951209 0 0 0 11.51584,4.52895 h 38.81745 v -13.58685 h -36.22962 a 4.9168774,4.9171444 0 0 1 -4.65809,-5.434738 V 72.463894 h 35.25919 V 59.135844 H 197.45173 V 39.337868 a 4.9168774,4.9171444 0 0 1 4.6581,-5.434738 h 36.22962 V 20.51038 H 199.522 a 17.209071,17.210006 0 0 0 -11.51585,4.528948"
       id="path844"
       style="stroke:none;stroke-width:6.46976" />
    <path
       class="cls-2"
       d="m 719.67589,33.90313 h 36.22956 V 20.51038 h -38.8174 a 17.209071,17.210006 0 0 0 -11.51584,4.528948 17.53255,17.533503 0 0 0 -5.04628,12.939856 v 77.639126 h 14.29776 V 72.463894 h 35.64736 V 59.135844 H 714.75897 V 39.337868 a 4.9168774,4.9171444 0 0 1 4.65812,-5.434738"
       id="path846"
       style="stroke:none;stroke-width:6.46976" />
    <path
       class="cls-2"
       d="m 292.42509,59.135844 h -22.19064 a 5.1109646,5.1112422 0 0 1 -4.98156,-5.111242 V 39.337868 a 4.8521816,4.8524456 0 0 1 4.5934,-5.434738 h 35.51796 V 20.51038 h -37.9764 a 17.209071,17.210006 0 0 0 -11.51586,4.528948 17.273767,17.274706 0 0 0 -5.04626,12.939856 v 19.474478 a 16.7562,16.757112 0 0 0 16.6915,16.757114 h 22.25534 a 5.1109646,5.1112422 0 0 1 5.11096,5.111244 v 17.7276 a 4.9168774,4.9171444 0 0 1 -4.65808,5.43474 h -39.39972 v 13.39275 h 41.79346 A 16.497418,16.498314 0 0 0 309.18129,98.6671 V 76.022356 a 16.691505,16.692412 0 0 0 -16.7562,-16.886512"
       id="path848"
       style="stroke:none;stroke-width:6.46976" />
    <path
       class="cls-2"
       d="m 470.01497,25.039328 a 17.273767,17.274706 0 0 0 -5.04624,12.939856 v 60.817314 a 17.07968,17.080608 0 0 0 5.04624,12.616362 16.950288,16.951209 0 0 0 11.51584,4.52895 h 38.8174 v -13.58685 h -36.2296 a 4.8521816,4.8524456 0 0 1 -4.5934,-5.434738 V 72.463894 h 35.64736 V 59.135844 H 479.26645 V 39.337868 a 4.8521816,4.8524456 0 0 1 4.5934,-5.434738 h 36.22964 V 20.51038 h -38.81748 a 17.209071,17.210006 0 0 0 -11.51584,4.528948"
       id="path850"
       style="stroke:none;stroke-width:6.46976" />
    <path
       class="cls-2"
       d="m 574.23981,59.135844 h -22.19064 a 5.1109646,5.1112422 0 0 1 -5.11096,-5.111242 V 39.337868 a 4.8521816,4.8524456 0 0 1 4.5934,-5.434738 h 35.64732 V 20.51038 h -38.04108 a 17.07968,17.080608 0 0 0 -11.45116,4.528948 17.273767,17.274706 0 0 0 -5.04624,12.939856 v 19.474478 a 16.691505,16.692412 0 0 0 16.69152,16.757114 h 22.1906 a 5.1109646,5.1112422 0 0 1 5.111,5.111244 v 17.7276 a 4.8521816,4.8524456 0 0 1 -4.59344,5.43474 h -39.39968 v 13.39275 h 41.79344 a 16.820896,16.821811 0 0 0 11.45116,-4.59365 17.014984,17.015908 0 0 0 5.11096,-12.939856 V 75.69886 a 16.691505,16.692412 0 0 0 -16.7562,-16.692414"
       id="path852"
       style="stroke:none;stroke-width:6.46976" />
    <path
       class="cls-2"
       d="m 644.37001,59.135844 h -22.19064 a 5.1109646,5.1112422 0 0 1 -5.11096,-5.111242 V 39.337868 a 4.8521816,4.8524456 0 0 1 4.5934,-5.434738 h 35.64736 V 20.51038 h -37.9764 a 17.209071,17.210006 0 0 0 -11.51588,4.528948 17.273767,17.274706 0 0 0 -5.04624,12.939856 v 19.474478 a 16.7562,16.757112 0 0 0 16.69148,16.757114 h 22.25536 a 5.1109646,5.1112422 0 0 1 5.11096,5.111244 v 17.7276 a 4.9168774,4.9171444 0 0 1 -4.65808,5.43474 h -39.39972 v 13.39275 h 41.7934 A 16.497418,16.498314 0 0 0 661.12617,98.6671 V 76.022356 A 16.691505,16.692412 0 0 0 644.37001,59.135844"
       id="path854"
       style="stroke:none;stroke-width:6.46976" />
    <path
       class="cls-2"
       d="m 365.40191,20.44568 h -43.28146 v 95.30203 h 14.29776 V 78.739726 h 28.9837 a 16.626809,16.627713 0 0 0 11.45114,-4.52895 17.014984,17.015908 0 0 0 5.11098,-12.939854 V 37.590988 A 17.144375,17.145307 0 0 0 376.85305,24.97463 16.626809,16.627713 0 0 0 365.40191,20.44568 m 2.19966,39.531258 a 4.8521816,4.8524456 0 0 1 -4.5934,5.434734 H 336.41821 V 33.77373 h 26.58996 a 4.8521816,4.8524456 0 0 1 4.5934,5.43474 z"
       id="path856"
       style="stroke:none;stroke-width:6.46976" />
  </g>
  <metadata
     id="metadata1259">
    <rdf:RDF>
      <cc:Work
         rdf:about="">
        <dc:title>espressif-logo</dc:title>
      </cc:Work>
    </rdf:RDF>
  </metadata>
</svg>
