<?xml version="1.0" encoding="UTF-8" standalone="no"?>
<svg
   viewBox="0 0 188.97638 188.97638"
   version="1.1"
   sodipodi:docname="espressif-logo_100mm_Copper.svg"
   width="50mm"
   height="50mm"
   inkscape:version="1.1 (c68e22c387, 2021-05-23)"
   id="svg1257"
   xmlns:inkscape="http://www.inkscape.org/namespaces/inkscape"
   xmlns:sodipodi="http://sodipodi.sourceforge.net/DTD/sodipodi-0.dtd"
   xmlns="http://www.w3.org/2000/svg"
   xmlns:svg="http://www.w3.org/2000/svg"
   xmlns:rdf="http://www.w3.org/1999/02/22-rdf-syntax-ns#"
   xmlns:cc="http://creativecommons.org/ns#"
   xmlns:dc="http://purl.org/dc/elements/1.1/">
  <sodipodi:namedview
     id="namedview859"
     pagecolor="#ffffff"
     bordercolor="#666666"
     borderopacity="1.0"
     inkscape:pageshadow="2"
     inkscape:pageopacity="0.0"
     inkscape:pagecheckerboard="0"
     showgrid="false"
     units="mm"
     inkscape:zoom="1.512981"
     inkscape:cx="37.343496"
     inkscape:cy="56.841428"
     inkscape:window-width="1194"
     inkscape:window-height="1008"
     inkscape:window-x="710"
     inkscape:window-y="0"
     inkscape:window-maximized="0"
     inkscape:document-units="mm"
     inkscape:current-layer="layer1" />
  <defs
     id="defs826">
    <style
       id="style824">.cls-1{fill:#e7352c;}.cls-2{fill:#333;}</style>
  </defs>
  <title
     id="title828">espressif-logo</title>
  <g
     inkscape:groupmode="layer"
     id="layer1"
     inkscape:label="F.Cu"
     style="display:inline">
    <path
       class="cls-1"
       d="m 62.36247,140.81985 c 0,4.99646 -2.543935,8.94221 -6.115765,11.20969 -4.910166,3.11709 -11.762826,3.06265 -16.619521,-1.79359 -8.389628,-8.38884 -2.449181,-22.73315 9.416984,-22.73315 7.355496,0 13.318302,5.96225 13.318302,13.31705"
       id="path830"
       style="stroke:none;stroke-width:8.99843"
       sodipodi:nodetypes="csssc" />
    <path
       class="cls-1"
       d="M 178.53766,126.96292 A 138.0424,138.02943 0 0 0 61.55257,9.9888273 87.558842,87.550614 0 0 0 42.205039,23.935739 V 36.802888 A 109.60603,109.59573 0 0 1 151.72108,146.21866 h 12.86836 a 92.23824,92.229572 0 0 0 13.94822,-19.25574"
       id="path832"
       style="stroke:none;stroke-width:8.99843" />
    <path
       class="cls-1"
       d="M 188.97632,86.561872 A 86.568964,86.560828 0 0 0 101.95742,0.00103922 c -3.059609,0 -6.029231,0 -8.998852,0.44990033 L 90.978818,6.2096643 A 148.93101,148.91702 0 0 1 182.22719,97.35948 l 5.75926,-2.069543 c 0,-2.879362 0.53991,-5.758728 0.53991,-8.998006"
       id="path834"
       style="stroke:none;stroke-width:8.99843" />
    <path
       class="cls-1"
       d="M 102.94729,188.95919 C 46.266559,188.95974 0.24815166,143.14676 4.2072718e-4,86.471891 -0.08266119,59.154178 10.77349,32.939845 30.146575,13.67801 l 5.849257,5.488785 C 15.312044,39.666497 7.1033386,67.540457 8.1628504,94.193247 9.0378873,116.20543 19.17179,137.46259 35.995832,154.1369 c 18.573229,18.7365 42.999239,28.11257 67.430138,28.12821 24.47174,0.0156 48.94838,-9.36039 67.55265,-28.12821 l 5.4893,5.48879 c -19.56717,19.26204 -46.06669,29.8349 -73.52063,29.3335"
       id="path836"
       style="stroke:none;stroke-width:8.99843"
       sodipodi:nodetypes="ccccacsccc" />
    <path
       class="cls-1"
       d="M 101.77744,152.15734 A 59.842368,59.836746 0 0 0 78.290438,98.97912 58.582529,58.577025 0 0 0 48.144282,86.741831 a 5.4893,5.4887845 0 0 1 -4.76939,-5.758728 5.3093231,5.3088242 0 0 1 5.849254,-4.85892 70.64099,70.634359 0 0 1 62.991964,77.202907 61.642134,61.636351 0 0 1 -2.3397,12.14731 l 15.658,4.40901 a 86.928919,86.920752 0 0 0 13.49828,-5.12886 95.747795,95.738796 0 0 0 1.70979,-18.44591 98.987383,98.978082 0 0 0 -83.959297,-97.718361 43.554447,43.550356 0 0 0 -15.747994,0 34.285627,34.282407 0 0 0 -17.007832,10.527668 33.655708,33.652548 0 0 0 15.028083,53.988043 77.930066,77.922744 0 0 0 8.458923,1.52966 v 0 a 31.585972,31.583005 0 0 1 26.276649,31.13311 31.226017,31.223086 0 0 1 -5.03936,17.00623 l 10.79863,6.92846 a 80.179777,80.172246 0 0 0 16.197924,2.69941 59.212452,59.206887 0 0 0 5.939244,-20.69542"
       id="path838"
       style="stroke:none;stroke-width:8.99843" />
  </g>
  <metadata
     id="metadata1259">
    <rdf:RDF>
      <cc:Work
         rdf:about="">
        <dc:title>espressif-logo</dc:title>
      </cc:Work>
    </rdf:RDF>
  </metadata>
</svg>
