<?xml version="1.0" encoding="UTF-8" standalone="no"?>
<svg
   viewBox="0 0 188.97638 34.02996"
   version="1.1"
   sodipodi:docname="espressif_50mm_Copper.svg"
   width="50mm"
   height="9.0037603mm"
   inkscape:version="1.1 (c68e22c387, 2021-05-23)"
   id="svg1257"
   xmlns:inkscape="http://www.inkscape.org/namespaces/inkscape"
   xmlns:sodipodi="http://sodipodi.sourceforge.net/DTD/sodipodi-0.dtd"
   xmlns="http://www.w3.org/2000/svg"
   xmlns:svg="http://www.w3.org/2000/svg"
   xmlns:rdf="http://www.w3.org/1999/02/22-rdf-syntax-ns#"
   xmlns:cc="http://creativecommons.org/ns#"
   xmlns:dc="http://purl.org/dc/elements/1.1/">
  <sodipodi:namedview
     id="namedview859"
     pagecolor="#ffffff"
     bordercolor="#666666"
     borderopacity="1.0"
     inkscape:pageshadow="2"
     inkscape:pageopacity="0.0"
     inkscape:pagecheckerboard="0"
     showgrid="false"
     units="mm"
     inkscape:zoom="2.1396782"
     inkscape:cx="58.18632"
     inkscape:cy="10.74928"
     inkscape:window-width="1140"
     inkscape:window-height="1008"
     inkscape:window-x="764"
     inkscape:window-y="0"
     inkscape:window-maximized="0"
     inkscape:document-units="mm"
     inkscape:current-layer="layer1" />
  <defs
     id="defs826">
    <style
       id="style824">.cls-1{fill:#e7352c;}.cls-2{fill:#333;}</style>
  </defs>
  <title
     id="title828">espressif-logo</title>
  <g
     inkscape:groupmode="layer"
     id="layer1"
     inkscape:label="F.Cu"
     style="display:inline">
    <path
       class="cls-1"
       d="M 11.208601,25.313281 A 2.393749,2.3938362 0 1 1 8.8148515,22.919444 2.393749,2.3938362 0 0 1 11.208601,25.313281"
       id="path830"
       style="stroke-width:1.61743" />
    <path
       class="cls-1"
       d="M 32.089209,22.822397 A 24.810885,24.811789 0 0 0 11.063035,1.7954574 15.737283,15.737856 0 0 0 7.585629,4.3025156 V 6.6154789 A 19.699908,19.700625 0 0 1 27.269363,26.283755 h 2.312879 a 16.578329,16.578933 0 0 0 2.506967,-3.461358"
       id="path832"
       style="stroke-width:1.61743" />
    <path
       class="cls-1"
       d="M 33.96539,15.560016 A 15.559369,15.559935 0 0 0 18.325152,8.0229642e-5 c -0.549916,0 -1.083657,0 -1.617398,0.08087284036 L 16.351926,1.1161255 A 26.767937,26.768912 0 0 1 32.752342,17.500964 l 1.035135,-0.372015 c 0,-0.517586 0.09704,-1.035173 0.09704,-1.617457"
       id="path834"
       style="stroke-width:1.61743" />
    <path
       class="cls-1"
       d="M 18.503066,33.966675 A 18.503033,18.503707 0 0 1 3.2430212e-5,15.543841 18.373641,18.37431 0 0 1 5.4183157,2.4586147 l 1.0513087,0.9866487 a 17.079723,17.080345 0 0 0 0,24.2618536 17.079723,17.080345 0 0 0 24.2609696,0 l 0.986613,0.986649 a 18.357467,18.358136 0 0 1 -13.214141,5.272909"
       id="path836"
       style="stroke-width:1.61743" />
    <path
       class="cls-1"
       d="m 18.292804,27.351276 a 10.755697,10.756088 0 0 0 -4.221409,-9.55917 10.529261,10.529644 0 0 0 -5.4182833,-2.199741 0.98661278,0.98664871 0 0 1 -0.8572209,-1.035173 0.95426482,0.95429957 0 0 1 1.0513087,-0.873426 12.696574,12.697037 0 0 1 11.3217855,13.87778 11.079176,11.07958 0 0 1 -0.420523,2.183567 l 2.814272,0.792553 a 15.624065,15.624634 0 0 0 2.426097,-0.92195 17.209115,17.209741 0 0 0 0.307306,-3.315787 17.791378,17.792026 0 0 0 -15.090323,-17.5655815 7.8282063,7.8284914 0 0 0 -2.8304467,0 6.1622864,6.1625108 0 0 0 -3.0568822,1.8924245 6.0490685,6.0492888 0 0 0 2.7010546,9.704741 14.006667,14.007177 0 0 0 1.5203542,0.274968 v 0 a 5.677067,5.6772737 0 0 1 4.7228021,5.596401 5.6123711,5.6125754 0 0 1 -0.905743,3.056993 l 1.940878,1.245442 a 14.411016,14.411541 0 0 0 2.911316,0.485237 10.642479,10.642866 0 0 0 1.067483,-3.720151"
       id="path838"
       style="stroke-width:1.61743" />
    <rect
       class="cls-2"
       x="168.50055"
       y="5.1274185"
       width="3.5744495"
       height="23.776615"
       id="rect840"
       style="stroke-width:1.61743" />
    <path
       class="cls-2"
       d="m 110.61388,18.97285 a 4.059669,4.0598168 0 0 0 2.3614,-3.898072 V 9.3975048 A 4.2699307,4.2700862 0 0 0 111.71371,6.2434638 4.2052348,4.2053879 0 0 0 108.83474,5.111244 H 98.515744 v 23.82514 h 3.590626 v -9.526821 h 3.67149 a 3.234796,3.2349138 0 0 1 3.2348,2.814375 l 1.40713,6.744795 h 3.91411 l -1.52036,-6.324256 a 4.852194,4.8523707 0 0 0 -2.19966,-3.590755 M 102.10637,8.4755544 v 0 h 6.14611 a 1.2130485,1.2130927 0 0 1 1.14835,1.3586637 v 4.8523709 a 1.2130485,1.2130927 0 0 1 -1.14835,1.358664 h -6.14611 z"
       id="path842"
       style="stroke-width:1.61743" />
    <path
       class="cls-2"
       d="M 47.05014,6.2596384 A 4.3184527,4.3186099 0 0 0 45.78857,9.4945522 V 24.698647 a 4.2699307,4.2700862 0 0 0 1.26157,3.154041 4.2375828,4.2377371 0 0 0 2.878969,1.13222 h 9.704388 v -3.39666 H 50.576068 A 1.2292225,1.2292672 0 0 1 49.411541,24.229585 V 18.115597 H 58.22636 V 14.783636 H 49.363019 V 9.8342181 a 1.2292225,1.2292672 0 0 1 1.164527,-1.3586637 h 9.057429 V 5.1274186 h -9.704388 a 4.3022787,4.3024353 0 0 0 -2.878969,1.1322198"
       id="path844"
       style="stroke-width:1.61743" />
    <path
       class="cls-2"
       d="m 179.91939,8.4755544 h 9.05742 V 5.1274186 h -9.70438 a 4.3022787,4.3024353 0 0 0 -2.87897,1.1322198 4.3831486,4.3833082 0 0 0 -1.26157,3.2349138 V 28.904035 h 3.57445 V 18.115597 h 8.91186 v -3.331961 h -8.92804 V 9.8342181 a 1.2292225,1.2292672 0 0 1 1.16453,-1.3586637"
       id="path846"
       style="stroke-width:1.61743" />
    <path
       class="cls-2"
       d="M 73.106422,14.783636 H 67.558747 A 1.2777444,1.2777909 0 0 1 66.31335,13.505845 V 9.8342181 a 1.2130485,1.2130927 0 0 1 1.148353,-1.3586637 h 8.879515 V 5.1274186 h -9.494126 a 4.3022787,4.3024353 0 0 0 -2.878969,1.1322198 4.3184527,4.3186099 0 0 0 -1.26157,3.2349138 v 4.8685448 a 4.1890608,4.1892134 0 0 0 4.172887,4.189214 h 5.563849 a 1.2777444,1.2777909 0 0 1 1.277744,1.277791 v 4.431832 a 1.2292225,1.2292672 0 0 1 -1.164526,1.358663 h -9.849954 v 3.348136 h 10.448391 a 4.1243649,4.1245151 0 0 0 4.140539,-4.302435 v -5.661099 a 4.1728868,4.1730388 0 0 0 -4.189061,-4.221563"
       id="path848"
       style="stroke-width:1.61743" />
    <path
       class="cls-2"
       d="m 117.504,6.2596384 a 4.3184527,4.3186099 0 0 0 -1.26157,3.2349138 V 24.698647 a 4.2699307,4.2700862 0 0 0 1.26157,3.154041 4.2375828,4.2377371 0 0 0 2.87897,1.13222 h 9.70438 v -3.39666 h -9.05743 a 1.2130485,1.2130927 0 0 1 -1.14835,-1.358663 v -6.113988 h 8.91186 v -3.331961 h -8.97655 V 9.8342181 a 1.2130485,1.2130927 0 0 1 1.14835,-1.3586637 h 9.05743 V 5.1274186 h -9.70439 a 4.3022787,4.3024353 0 0 0 -2.87897,1.1322198"
       id="path850"
       style="stroke-width:1.61743" />
    <path
       class="cls-2"
       d="m 143.56028,14.783636 h -5.54768 a 1.2777444,1.2777909 0 0 1 -1.27774,-1.277791 V 9.8342181 a 1.2130485,1.2130927 0 0 1 1.14835,-1.3586637 h 8.91186 V 5.1274186 h -9.5103 a 4.2699307,4.2700862 0 0 0 -2.86279,1.1322198 4.3184527,4.3186099 0 0 0 -1.26157,3.2349138 v 4.8685448 a 4.1728868,4.1730388 0 0 0 4.17289,4.189214 h 5.54767 a 1.2777444,1.2777909 0 0 1 1.27775,1.277791 v 4.431832 a 1.2130485,1.2130927 0 0 1 -1.14836,1.358663 h -9.84995 v 3.348136 h 10.44839 a 4.2052348,4.2053879 0 0 0 2.8628,-1.148394 4.2537567,4.2539116 0 0 0 1.27774,-3.234914 v -5.661099 a 4.1728868,4.1730388 0 0 0 -4.18906,-4.173039"
       id="path852"
       style="stroke-width:1.61743" />
    <path
       class="cls-2"
       d="m 161.09287,14.783636 h -5.54767 a 1.2777444,1.2777909 0 0 1 -1.27775,-1.277791 V 9.8342181 a 1.2130485,1.2130927 0 0 1 1.14836,-1.3586637 h 8.91186 V 5.1274186 h -9.49413 a 4.3022787,4.3024353 0 0 0 -2.87897,1.1322198 4.3184527,4.3186099 0 0 0 -1.26157,3.2349138 v 4.8685448 a 4.1890608,4.1892134 0 0 0 4.17289,4.189214 h 5.56385 a 1.2777444,1.2777909 0 0 1 1.27774,1.277791 v 4.431832 a 1.2292225,1.2292672 0 0 1 -1.16452,1.358663 H 150.693 v 3.348136 h 10.44839 a 4.1243649,4.1245151 0 0 0 4.14054,-4.302435 v -5.661099 a 4.1728868,4.1730388 0 0 0 -4.18906,-4.221563"
       id="path854"
       style="stroke-width:1.61743" />
    <path
       class="cls-2"
       d="M 91.350671,5.111244 H 80.530279 v 23.82514 h 3.574449 v -9.251853 h 7.245943 a 4.1567129,4.1568642 0 0 0 2.862795,-1.13222 4.2537567,4.2539116 0 0 0 1.277744,-3.234914 V 9.3975048 A 4.2861047,4.2862608 0 0 0 94.213466,6.2434638 4.1567129,4.1568642 0 0 0 91.350671,5.111244 m 0.549916,9.882662 a 1.2130485,1.2130927 0 0 1 -1.148353,1.358663 H 84.104728 V 8.4432052 h 6.647506 a 1.2130485,1.2130927 0 0 1 1.148353,1.3586638 z"
       id="path856"
       style="stroke-width:1.61743" />
  </g>
  <metadata
     id="metadata1259">
    <rdf:RDF>
      <cc:Work
         rdf:about="">
        <dc:title>espressif-logo</dc:title>
      </cc:Work>
    </rdf:RDF>
  </metadata>
</svg>
