<?xml version="1.0" encoding="UTF-8" standalone="no"?>
<svg
   width="16.42341mm"
   height="12mm"
   viewBox="0 0 62.072733 45.354332"
   version="1.1"
   xml:space="preserve"
   style="clip-rule:evenodd;fill-rule:evenodd;stroke-linejoin:round;stroke-miterlimit:2"
   id="svg220"
   sodipodi:docname="wifi_12mm_ss.svg"
   inkscape:version="1.1 (c68e22c387, 2021-05-23)"
   xmlns:inkscape="http://www.inkscape.org/namespaces/inkscape"
   xmlns:sodipodi="http://sodipodi.sourceforge.net/DTD/sodipodi-0.dtd"
   xmlns="http://www.w3.org/2000/svg"
   xmlns:svg="http://www.w3.org/2000/svg"><defs
     id="defs224" /><sodipodi:namedview
     id="namedview222"
     pagecolor="#ffffff"
     bordercolor="#666666"
     borderopacity="1.0"
     inkscape:pageshadow="2"
     inkscape:pageopacity="0.0"
     inkscape:pagecheckerboard="0"
     showgrid="false"
     inkscape:zoom="10.462299"
     inkscape:cx="21.457999"
     inkscape:cy="22.604974"
     inkscape:window-width="1920"
     inkscape:window-height="1017"
     inkscape:window-x="-8"
     inkscape:window-y="-8"
     inkscape:window-maximized="1"
     inkscape:current-layer="layer1"
     units="mm"
     fit-margin-top="0"
     fit-margin-left="0"
     fit-margin-right="0"
     fit-margin-bottom="0"
     inkscape:document-units="mm" /><g
     inkscape:groupmode="layer"
     id="layer1"
     inkscape:label="F.SilkS"
     style="display:inline"
     transform="translate(-70.348346,-21.409957)"><g
       id="F.Cu"
       style="clip-rule:evenodd;fill-rule:evenodd;stroke-linejoin:round;stroke-miterlimit:2"
       transform="matrix(0.07680007,0,0,0.07680007,70.348355,21.409976)"><path
         id="path39"
         d="m 391.302,589.456 c -14.241,-2.605 -26.741,-8.95 -37.358,-18.975 -15.754,-14.867 -23.287,-32.234 -23.287,-53.667 0,-20.946 7.441,-38.517 22.391,-52.863 7.288,-6.995 12.059,-10.333 19.979,-13.995 22.038,-10.184 47.646,-8.88 69.017,3.516 7.271,4.213 20.904,17.921 25.246,25.388 7.925,13.612 10.662,24.879 10.004,41.187 -0.637,15.863 -4.412,27.038 -13.421,39.738 -4.696,6.621 -15.312,16.496 -21.904,20.371 -15.158,8.916 -33.925,12.362 -50.667,9.3 z M 252.186,433.476 c -12.946,-4.141 -22.796,-15.045 -25.542,-28.279 -1.862,-8.966 0.488,-20.075 5.917,-27.966 4.2,-6.105 21.554,-23.584 31.496,-31.73 31.916,-26.137 68.466,-42.075 110.741,-48.287 14.95,-2.196 45.604,-2.004 61.059,0.383 14.416,2.225 30.954,6.371 43.32,10.85 20.438,7.409 45.771,21.521 62.284,34.7 15.346,12.25 32.704,30.313 36.683,38.167 10.538,20.812 -0.429,46.179 -22.554,52.171 -8.371,2.262 -18.283,1.483 -25.671,-2.025 -4.912,-2.334 -7.5,-4.504 -17.325,-14.513 -6.354,-6.475 -14.154,-13.804 -17.329,-16.296 -44.963,-35.225 -106.171,-41.429 -156.771,-15.891 -17.442,8.804 -30.908,19.096 -45.225,34.566 -6.871,7.425 -9.042,9.213 -14.362,11.846 -5.842,2.884 -6.846,3.113 -14.6,3.309 -5.584,0.137 -9.575,-0.192 -12.121,-1.005 z M 139.148,338.589 c -17.608,-5.633 -28.679,-23.288 -25.654,-40.917 2.021,-11.787 6.546,-18.012 30.608,-42.096 29.771,-29.795 58.867,-50.716 96.205,-69.179 19.304,-9.546 30.379,-14.162 48.287,-20.133 66.5,-22.175 140.754,-24.529 208.733,-6.621 25.18,6.633 45.071,14.138 69.721,26.304 26.046,12.85 46.075,25.604 68.9,43.867 19.342,15.475 50.759,47.517 55.279,56.371 8.538,16.737 3.025,37.846 -12.5,47.883 -6.729,4.346 -13.641,6.054 -22.704,5.604 -11.041,-0.546 -16.65,-3.487 -26.258,-13.771 -13.767,-14.737 -29.658,-30.195 -38.467,-37.42 -38.254,-31.38 -83.962,-52.792 -132.337,-61.996 -26.717,-5.084 -61.596,-6.479 -86.559,-3.463 -74.879,9.046 -137.404,41.309 -188.425,97.234 -10.745,11.775 -12.304,13.158 -18.07,16.008 -5.888,2.908 -6.875,3.133 -14.638,3.329 -5.587,0.138 -9.575,-0.192 -12.121,-1.004 z M 31.965,244.876 C 7.173,241.801 -7.16,215.276 3.644,192.464 9.873,179.306 54.811,134.318 86.423,109.589 192.786,26.385 327.607,-11.857 461.436,3.222 c 60.675,6.834 114.837,22.725 169.975,49.875 24.066,11.85 37.925,19.809 58.996,33.884 29.412,19.645 51.866,38.141 78.029,64.27 20.3,20.275 32.408,34.088 35.85,40.909 3.387,6.712 4.712,14.916 3.525,21.85 -4.284,25.004 -30.129,38.312 -52.809,27.187 -4.883,-2.396 -7.175,-4.271 -12.787,-10.466 C 722.561,209.039 717.227,203.468 707.232,194.189 658.286,148.747 604.994,116.889 543.74,96.443 463.057,69.51 376.057,66.526 293.523,87.856 c -30.321,7.837 -54.987,17.075 -84.571,31.666 -53.858,26.571 -97.316,59.921 -138.7,106.438 -10.491,11.796 -15.462,15.616 -23.025,17.7 -5.608,1.546 -9.875,1.883 -15.262,1.216 z"
         style="fill:#ffffff;fill-rule:nonzero" /></g></g></svg>
